<mxfile host="65bd71144e">
    <diagram id="VPPFJZ-X--moWqqHt-AP" name="Page-1">
        <mxGraphModel dx="2180" dy="2257" grid="1" gridSize="10" guides="1" tooltips="1" connect="1" arrows="1" fold="1" page="1" pageScale="1" pageWidth="827" pageHeight="1169" math="0" shadow="0">
            <root>
                <mxCell id="0"/>
                <mxCell id="1" parent="0"/>
                <mxCell id="3" value="&lt;h1&gt;CLASSES DIAGRAM&lt;/h1&gt;&lt;div style=&quot;font-size: 13px&quot;&gt;&lt;font style=&quot;font-size: 13px&quot;&gt;&lt;b&gt;CRM-Jurés&lt;/b&gt;&lt;/font&gt;&lt;/div&gt;&lt;div style=&quot;font-size: 13px&quot;&gt;DWWM-4&lt;/div&gt;&lt;div&gt;2021-2022&lt;/div&gt;&lt;div&gt;Louis URBANI&lt;/div&gt;&lt;div&gt;Amandine PIMENTEL DE ANDRADE&lt;/div&gt;" style="text;html=1;strokeColor=none;fillColor=none;spacing=5;spacingTop=-20;whiteSpace=wrap;overflow=hidden;rounded=0;align=left;" parent="1" vertex="1">
                    <mxGeometry x="20" y="20" width="256" height="120" as="geometry"/>
                </mxCell>
                <mxCell id="68" style="edgeStyle=orthogonalEdgeStyle;rounded=0;orthogonalLoop=1;jettySize=auto;html=1;entryX=-0.002;entryY=0.131;entryDx=0;entryDy=0;entryPerimeter=0;" edge="1" parent="1" source="52" target="56">
                    <mxGeometry relative="1" as="geometry">
                        <Array as="points">
                            <mxPoint x="162" y="497"/>
                        </Array>
                    </mxGeometry>
                </mxCell>
                <mxCell id="69" style="edgeStyle=orthogonalEdgeStyle;rounded=0;orthogonalLoop=1;jettySize=auto;html=1;entryX=0;entryY=0.123;entryDx=0;entryDy=0;entryPerimeter=0;" edge="1" parent="1" source="52" target="58">
                    <mxGeometry relative="1" as="geometry">
                        <Array as="points">
                            <mxPoint x="162" y="656"/>
                        </Array>
                    </mxGeometry>
                </mxCell>
                <mxCell id="70" style="edgeStyle=orthogonalEdgeStyle;rounded=0;orthogonalLoop=1;jettySize=auto;html=1;entryX=-0.002;entryY=0.076;entryDx=0;entryDy=0;entryPerimeter=0;" edge="1" parent="1" source="52" target="61">
                    <mxGeometry relative="1" as="geometry">
                        <Array as="points">
                            <mxPoint x="162" y="826"/>
                        </Array>
                    </mxGeometry>
                </mxCell>
                <mxCell id="52" value="Contact" style="swimlane;fontStyle=0;childLayout=stackLayout;horizontal=1;startSize=26;horizontalStack=0;resizeParent=1;resizeParentMax=0;resizeLast=0;collapsible=1;marginBottom=0;" vertex="1" parent="1">
                    <mxGeometry x="120" y="200" width="440" height="220" as="geometry"/>
                </mxCell>
                <mxCell id="54" value="        protected $ID_contact;&#10;        protected $Nom_contact;&#10;        protected $tel_contact;&#10;        protected $tel2_contact;&#10;        protected $mail_contact;&#10;        protected $numeroAdresse_contact;&#10;        protected $libelleAdresse_contact;&#10;        protected $complementAdresse_Contact;&#10;        protected $VilleAdresse_contact;&#10;        protected $codePostalAdresse_contact;&#10;&#10;----------------------------------------------------------------------&#10;        protected function set_attributesFromContact(Contact $contactAttributes)&#10;" style="text;strokeColor=none;fillColor=none;align=left;verticalAlign=top;spacingLeft=4;spacingRight=4;overflow=hidden;rotatable=0;points=[[0,0.5],[1,0.5]];portConstraint=eastwest;" vertex="1" parent="52">
                    <mxGeometry y="26" width="440" height="194" as="geometry"/>
                </mxCell>
                <mxCell id="56" value="Entreprise" style="swimlane;fontStyle=0;childLayout=stackLayout;horizontal=1;startSize=26;horizontalStack=0;resizeParent=1;resizeParentMax=0;resizeLast=0;collapsible=1;marginBottom=0;" vertex="1" parent="1">
                    <mxGeometry x="242" y="480" width="440" height="130" as="geometry"/>
                </mxCell>
                <mxCell id="57" value="Extends Contact&#10;----------------------------------------------------------------------&#10;        private $contactAttributes;&#10;        private $ID_entreprise;&#10;----------------------------------------------------------------------&#10;" style="text;strokeColor=none;fillColor=none;align=left;verticalAlign=top;spacingLeft=4;spacingRight=4;overflow=hidden;rotatable=0;points=[[0,0.5],[1,0.5]];portConstraint=eastwest;" vertex="1" parent="56">
                    <mxGeometry y="26" width="440" height="104" as="geometry"/>
                </mxCell>
                <mxCell id="58" value="Formateur" style="swimlane;fontStyle=0;childLayout=stackLayout;horizontal=1;startSize=26;horizontalStack=0;resizeParent=1;resizeParentMax=0;resizeLast=0;collapsible=1;marginBottom=0;" vertex="1" parent="1">
                    <mxGeometry x="242" y="640" width="440" height="130" as="geometry"/>
                </mxCell>
                <mxCell id="59" value="Extends Contact&#10;----------------------------------------------------------------------&#10;        private $contactAttributes;&#10;        private $ID_formateur;&#10;----------------------------------------------------------------------&#10;" style="text;strokeColor=none;fillColor=none;align=left;verticalAlign=top;spacingLeft=4;spacingRight=4;overflow=hidden;rotatable=0;points=[[0,0.5],[1,0.5]];portConstraint=eastwest;" vertex="1" parent="58">
                    <mxGeometry y="26" width="440" height="104" as="geometry"/>
                </mxCell>
                <mxCell id="61" value="Jure" style="swimlane;fontStyle=0;childLayout=stackLayout;horizontal=1;startSize=26;horizontalStack=0;resizeParent=1;resizeParentMax=0;resizeLast=0;collapsible=1;marginBottom=0;" vertex="1" parent="1">
                    <mxGeometry x="242" y="810" width="440" height="210" as="geometry"/>
                </mxCell>
                <mxCell id="62" value="Extends Contact&#10;----------------------------------------------------------------------&#10;        private $contactAttributes;&#10;        private $ID_jure;&#10;        private $participations_sessions;&#10;        private $habilitations;&#10;        private $specialites;&#10;        private $entreprisesEmployeurs;&#10;----------------------------------------------------------------------&#10;        protected function isHab(SessionExamen $sessionExamenToCheck) : bool&#10;        protected function isAvailable(SessionExamen $sessionExamenToCheck)&#10;        protected function isOk(SessionExamen $sessionExamenToCheck)&#10;&#10;&#10;" style="text;strokeColor=none;fillColor=none;align=left;verticalAlign=top;spacingLeft=4;spacingRight=4;overflow=hidden;rotatable=0;points=[[0,0.5],[1,0.5]];portConstraint=eastwest;" vertex="1" parent="61">
                    <mxGeometry y="26" width="440" height="184" as="geometry"/>
                </mxCell>
                <mxCell id="71" value="FormationPattern" style="swimlane;fontStyle=0;childLayout=stackLayout;horizontal=1;startSize=26;horizontalStack=0;resizeParent=1;resizeParentMax=0;resizeLast=0;collapsible=1;marginBottom=0;" vertex="1" parent="1">
                    <mxGeometry x="920" y="200" width="440" height="130" as="geometry"/>
                </mxCell>
                <mxCell id="72" value="        protected $ID_formationPattern;&#10;        protected $libelle_formationPattern;&#10;        protected $description_formation;&#10;        protected $neededHabilitations;&#10;----------------------------------------------------------------------&#10;" style="text;strokeColor=none;fillColor=none;align=left;verticalAlign=top;spacingLeft=4;spacingRight=4;overflow=hidden;rotatable=0;points=[[0,0.5],[1,0.5]];portConstraint=eastwest;" vertex="1" parent="71">
                    <mxGeometry y="26" width="440" height="104" as="geometry"/>
                </mxCell>
                <mxCell id="73" value="FormationPattern" style="swimlane;fontStyle=0;childLayout=stackLayout;horizontal=1;startSize=26;horizontalStack=0;resizeParent=1;resizeParentMax=0;resizeLast=0;collapsible=1;marginBottom=0;" vertex="1" parent="1">
                    <mxGeometry x="1040" y="390" width="440" height="180" as="geometry"/>
                </mxCell>
                <mxCell id="74" value="Extends FormationPattern&#10;----------------------------------------------------------------------&#10;        protected $FormationPattern;&#10;        protected $ID_formation;&#10;        protected $libelle_formation;&#10;        protected $date_debutFormation;&#10;        protected $date_finFormation;&#10;        protected $formateur;&#10;        private $sessionsExamens;" style="text;strokeColor=none;fillColor=none;align=left;verticalAlign=top;spacingLeft=4;spacingRight=4;overflow=hidden;rotatable=0;points=[[0,0.5],[1,0.5]];portConstraint=eastwest;" vertex="1" parent="73">
                    <mxGeometry y="26" width="440" height="154" as="geometry"/>
                </mxCell>
                <mxCell id="75" value="SessionExamen" style="swimlane;fontStyle=0;childLayout=stackLayout;horizontal=1;startSize=26;horizontalStack=0;resizeParent=1;resizeParentMax=0;resizeLast=0;collapsible=1;marginBottom=0;" vertex="1" parent="1">
                    <mxGeometry x="1160" y="630" width="440" height="210" as="geometry"/>
                </mxCell>
                <mxCell id="76" value="Extends Formation&#10;----------------------------------------------------------------------&#10;        private $formationPattern;&#10;        private $formation;&#10;        private $ID_sessionExamen;&#10;        private $libelle_formation;&#10;        private $date_debutSession;&#10;        private $date_FinSession;&#10;        private $jures;&#10;----------------------------------------------------------------------&#10;        protected function checkIfDatesCross()&#10;        protected function checkIfIsAllOk()" style="text;strokeColor=none;fillColor=none;align=left;verticalAlign=top;spacingLeft=4;spacingRight=4;overflow=hidden;rotatable=0;points=[[0,0.5],[1,0.5]];portConstraint=eastwest;" vertex="1" parent="75">
                    <mxGeometry y="26" width="440" height="184" as="geometry"/>
                </mxCell>
                <mxCell id="77" style="edgeStyle=orthogonalEdgeStyle;rounded=0;orthogonalLoop=1;jettySize=auto;html=1;entryX=-0.007;entryY=0.078;entryDx=0;entryDy=0;entryPerimeter=0;" edge="1" parent="1" source="72" target="73">
                    <mxGeometry relative="1" as="geometry">
                        <Array as="points">
                            <mxPoint x="960" y="404"/>
                        </Array>
                    </mxGeometry>
                </mxCell>
                <mxCell id="79" style="edgeStyle=orthogonalEdgeStyle;rounded=0;orthogonalLoop=1;jettySize=auto;html=1;entryX=0.002;entryY=0.062;entryDx=0;entryDy=0;entryPerimeter=0;" edge="1" parent="1" source="74" target="75">
                    <mxGeometry relative="1" as="geometry">
                        <Array as="points">
                            <mxPoint x="1080" y="643"/>
                        </Array>
                    </mxGeometry>
                </mxCell>
                <mxCell id="80" value="Habilitation" style="swimlane;fontStyle=0;childLayout=stackLayout;horizontal=1;startSize=26;horizontalStack=0;resizeParent=1;resizeParentMax=0;resizeLast=0;collapsible=1;marginBottom=0;" vertex="1" parent="1">
                    <mxGeometry x="1760" y="200" width="510" height="130" as="geometry"/>
                </mxCell>
                <mxCell id="81" value="        private $ID_habilitation;&#10;        private $libelle_habilitation;&#10;        private $debut_habilitation;&#10;        private $fin_habilitation;&#10;----------------------------------------------------------------------&#10;        protected function isDatesCompatible(SessionExamen $sessionExamenToCheck) :bool&#10;" style="text;strokeColor=none;fillColor=none;align=left;verticalAlign=top;spacingLeft=4;spacingRight=4;overflow=hidden;rotatable=0;points=[[0,0.5],[1,0.5]];portConstraint=eastwest;" vertex="1" parent="80">
                    <mxGeometry y="26" width="510" height="104" as="geometry"/>
                </mxCell>
                <mxCell id="82" value="Crud" style="swimlane;fontStyle=0;childLayout=stackLayout;horizontal=1;startSize=26;horizontalStack=0;resizeParent=1;resizeParentMax=0;resizeLast=0;collapsible=1;marginBottom=0;" vertex="1" parent="1">
                    <mxGeometry x="1760" y="390" width="510" height="130" as="geometry"/>
                </mxCell>
                <mxCell id="83" value="&#10;----------------------------------------------------------------------&#10;" style="text;strokeColor=none;fillColor=none;align=left;verticalAlign=top;spacingLeft=4;spacingRight=4;overflow=hidden;rotatable=0;points=[[0,0.5],[1,0.5]];portConstraint=eastwest;" vertex="1" parent="82">
                    <mxGeometry y="26" width="510" height="104" as="geometry"/>
                </mxCell>
            </root>
        </mxGraphModel>
    </diagram>
</mxfile>